<svg xmlns="http://www.w3.org/2000/svg" viewBox="0 0 64 64">
    <path fill-rule="evenodd" clip-rule="evenodd"
        d="M56.692 29.202a4.074 4.074 0 0 0-1.012 1.71l-12.51-.024a6.716 6.716 0 0 0-1.081-2.697l2.17-2.17a4.038 4.038 0 0 0 4.61-.81c1.588-1.587 1.625-4.122.08-5.666-1.544-1.544-4.078-1.508-5.667.08a4.038 4.038 0 0 0-.76 4.704l-2.145 2.143a6.682 6.682 0 0 0-2.56-1.095l-.022-12.629a4.122 4.122 0 0 0 1.494-.946c1.589-1.589 1.625-4.123.08-5.667-1.544-1.544-4.078-1.508-5.667.08-1.586 1.586-1.62 4.12-.076 5.663.5.5 1.107.82 1.75.989l.026 12.5c-.974.165-1.9.542-2.711 1.105l-2.263-2.262c.807-1.52.613-3.414-.638-4.665-1.544-1.544-4.08-1.508-5.668.08-1.586 1.587-1.62 4.12-.076 5.663 1.255 1.255 3.157 1.453 4.684.63l2.255 2.256a6.714 6.714 0 0 0-1.116 2.68l-12.514-.021a3.838 3.838 0 0 0-.975-1.707c-1.544-1.544-4.079-1.508-5.667.08-1.587 1.587-1.621 4.12-.077 5.663 1.544 1.544 4.077 1.51 5.664-.076.448-.449.762-.981.962-1.537l12.61.023a6.67 6.67 0 0 0 1.1 2.606l-2.142 2.141a4.037 4.037 0 0 0-4.706.763c-1.586 1.586-1.62 4.119-.076 5.663 1.544 1.544 4.077 1.51 5.663-.077 1.265-1.264 1.531-3.124.809-4.61l2.17-2.17a6.657 6.657 0 0 0 2.748 1.085l.023 12.49a4.112 4.112 0 0 0-1.755 1.031c-1.586 1.586-1.62 4.119-.077 5.663 1.545 1.544 4.078 1.51 5.664-.077 1.588-1.588 1.625-4.122.08-5.666a3.828 3.828 0 0 0-1.486-.912l-.027-12.575a6.644 6.644 0 0 0 2.498-1.085l2.221 2.22c-.82 1.526-.627 3.428.63 4.685 1.545 1.544 4.077 1.51 5.664-.077 1.588-1.588 1.625-4.123.08-5.667-1.249-1.249-3.144-1.446-4.665-.638l-2.228-2.228a6.702 6.702 0 0 0 1.082-2.526l12.55.023c.183.578.502 1.104.93 1.534 1.543 1.544 4.076 1.51 5.663-.077 1.588-1.588 1.624-4.122.08-5.667-1.544-1.544-4.085-1.517-5.673.071Z"
        fill="#2653E3" />
</svg>