<svg xmlns="http://www.w3.org/2000/svg" width="334" height="64" fill="none"><path fill="#2653e3" fill-rule="evenodd" d="M56.692 29.202a4.1 4.1 0 0 0-1.012 1.71l-12.51-.024a6.7 6.7 0 0 0-1.081-2.697l2.17-2.17a4.04 4.04 0 0 0 4.61-.81c1.588-1.587 1.625-4.122.08-5.666s-4.078-1.508-5.667.08a4.04 4.04 0 0 0-.76 4.704l-2.145 2.143a6.7 6.7 0 0 0-2.56-1.095l-.022-12.629a4.1 4.1 0 0 0 1.494-.946c1.589-1.589 1.625-4.123.08-5.667s-4.078-1.508-5.667.08c-1.586 1.586-1.62 4.12-.076 5.663.5.5 1.107.82 1.75.989l.026 12.5c-.974.165-1.9.542-2.711 1.105l-2.263-2.262c.807-1.52.613-3.414-.638-4.665-1.544-1.544-4.08-1.508-5.668.08-1.586 1.587-1.62 4.12-.076 5.663 1.255 1.255 3.157 1.453 4.684.63l2.255 2.256a6.7 6.7 0 0 0-1.116 2.68l-12.514-.021a3.84 3.84 0 0 0-.975-1.707c-1.544-1.544-4.079-1.508-5.667.08-1.587 1.587-1.621 4.12-.077 5.663s4.077 1.51 5.664-.076c.448-.449.762-.981.962-1.537l12.61.023a6.7 6.7 0 0 0 1.1 2.606l-2.142 2.141a4.04 4.04 0 0 0-4.706.763c-1.586 1.586-1.62 4.119-.076 5.663s4.077 1.51 5.663-.077c1.265-1.264 1.531-3.124.809-4.61l2.17-2.17a6.66 6.66 0 0 0 2.748 1.085l.023 12.49a4.1 4.1 0 0 0-1.755 1.031c-1.586 1.586-1.62 4.119-.077 5.663 1.545 1.544 4.078 1.51 5.664-.077 1.588-1.588 1.625-4.122.08-5.666a3.8 3.8 0 0 0-1.486-.912l-.027-12.575a6.6 6.6 0 0 0 2.498-1.085l2.221 2.22c-.82 1.526-.627 3.428.63 4.685 1.545 1.544 4.077 1.51 5.664-.077 1.588-1.588 1.625-4.123.08-5.667-1.249-1.249-3.144-1.446-4.665-.638l-2.228-2.228a6.7 6.7 0 0 0 1.082-2.526l12.55.023c.183.578.502 1.104.93 1.534 1.543 1.544 4.076 1.51 5.663-.077 1.588-1.588 1.624-4.122.08-5.667s-4.085-1.517-5.673.071" clip-rule="evenodd"/><mask id="a" width="249" height="34" x="77.5" y="15" fill="#000" maskUnits="userSpaceOnUse"><path fill="#fff" d="M77.5 15h249v34h-249z"/><path d="M96.912 29.605q0 2.913-1.232 5.182-1.204 2.24-3.504 3.502-2.273 1.26-5.366 1.26H79.5V19.745h7.31q3.12 0 5.393 1.233t3.477 3.473q1.232 2.241 1.232 5.154M86.4 35.263q2.738 0 4.244-1.484 1.533-1.485 1.533-4.174t-1.533-4.174q-1.506-1.485-4.244-1.484h-2.217v11.316zm27.689-3.949q0 .588-.137 1.288h-10.595q.082 1.765.876 2.55.793.756 2.026.756 1.04 0 1.725-.533a2.5 2.5 0 0 0 .903-1.372h4.955a6.8 6.8 0 0 1-1.314 2.969q-1.013 1.288-2.573 2.045-1.561.728-3.477.728-2.245 0-3.997-.952-1.726-.981-2.71-2.801-.986-1.82-.986-4.258 0-2.465.958-4.258.986-1.82 2.738-2.773 1.752-.98 3.997-.98 2.272 0 3.997.952a6.54 6.54 0 0 1 2.656 2.69q.958 1.708.958 3.949m-4.737-.729q.028-1.54-.821-2.297-.821-.784-2.053-.784-1.287 0-2.136.784-.848.785-.958 2.297zm14.241 4.286 3.312-10.952h4.983l-5.421 15.63h-5.804l-5.421-15.63h4.983zm24.744-3.557q0 .588-.137 1.288h-10.595q.083 1.765.876 2.55.795.756 2.026.756 1.041 0 1.725-.533.685-.532.904-1.372h4.955a6.8 6.8 0 0 1-1.314 2.969q-1.012 1.288-2.574 2.045-1.56.728-3.477.728-2.245 0-3.997-.952-1.725-.981-2.71-2.801-.986-1.82-.986-4.258 0-2.465.959-4.258.985-1.82 2.737-2.773 1.752-.98 3.997-.98 2.273 0 3.998.952a6.54 6.54 0 0 1 2.655 2.69q.958 1.708.958 3.949m-4.736-.729q.028-1.54-.821-2.297-.821-.784-2.054-.784-1.286 0-2.135.784-.849.785-.958 2.297zm11.858-11.765v20.73h-4.681V18.821h4.681Zm10.378 4.903q2.273 0 4.052.98a6.8 6.8 0 0 1 2.82 2.773q1.04 1.82 1.04 4.258t-1.04 4.258a6.98 6.98 0 0 1-2.82 2.8q-1.78.953-4.052.953t-4.079-.952a7.15 7.15 0 0 1-2.847-2.801q-1.013-1.82-1.013-4.258c0-2.438.337-3.044 1.013-4.258q1.04-1.82 2.847-2.773 1.807-.98 4.079-.98m0 4.145q-1.341 0-2.272 1.009-.904.98-.904 2.857 0 1.876.904 2.857.93.98 2.272.98t2.245-.98.904-2.857-.904-2.857q-.903-1.008-2.245-1.009m19.867-4.145q1.89 0 3.368.98 1.505.953 2.354 2.773.876 1.793.876 4.258 0 2.437-.876 4.258-.849 1.82-2.354 2.8-1.478.953-3.368.953-1.752 0-3.011-.812a4.7 4.7 0 0 1-1.835-2.213V47h-4.681V23.919h4.681v2.829a4.7 4.7 0 0 1 1.835-2.213q1.259-.812 3.011-.812m-1.505 4.201q-1.479 0-2.437 1.037-.931 1.008-.931 2.773 0 1.737.931 2.773.958 1.035 2.437 1.036 1.505 0 2.409-1.008.93-1.008.931-2.801c.001-1.793-.311-2.129-.931-2.801q-.905-1.009-2.409-1.009m25.043 3.39q0 .588-.137 1.288H198.51q.081 1.765.876 2.55.793.756 2.026.756 1.04 0 1.724-.533.685-.532.904-1.372h4.955a6.8 6.8 0 0 1-1.314 2.969q-1.013 1.288-2.573 2.045-1.561.728-3.477.728-2.245 0-3.997-.952-1.725-.981-2.711-2.801t-.985-4.258q0-2.465.958-4.258.985-1.82 2.738-2.773 1.752-.98 3.997-.98 2.272 0 3.997.952a6.53 6.53 0 0 1 2.655 2.69q.959 1.708.959 3.949m-4.737-.729q.028-1.54-.821-2.297-.822-.784-2.053-.784-1.287 0-2.136.784-.849.785-.958 2.297zm11.859-3.725a6.76 6.76 0 0 1 2.245-2.269q1.395-.84 3.011-.84v5.126h-1.341q-1.862 0-2.902.812-1.014.813-1.013 2.745v7.115h-4.682v-15.63h4.682zm12.773-3.137q2.902 0 4.627 1.484 1.752 1.485 2.19 3.922h-4.38q-.192-.953-.876-1.485-.657-.56-1.67-.56-.794 0-1.205.364-.411.336-.411.98 0 .729.74 1.093.767.364 2.381.728 1.753.42 2.875.869 1.122.42 1.944 1.4.82.981.821 2.633 0 1.345-.712 2.381-.712 1.037-2.053 1.625t-3.176.588q-3.093 0-4.955-1.4-1.862-1.401-2.272-4.006h4.517q.11 1.008.821 1.54.74.533 1.889.533.795 0 1.205-.364.411-.393.411-1.009 0-.812-.767-1.148-.74-.364-2.437-.756-1.697-.365-2.792-.785a4.66 4.66 0 0 1-1.889-1.344q-.794-.953-.794-2.577 0-2.1 1.56-3.39 1.561-1.316 4.408-1.316m24.171-4.174q3.642 0 5.996 1.82 2.355 1.822 2.929 4.93h-4.955a3.8 3.8 0 0 0-1.506-1.68q-1.013-.644-2.436-.644-2.218 0-3.559 1.54-1.342 1.513-1.342 4.118 0 2.829 1.396 4.342 1.424 1.512 4.025 1.512 1.67 0 2.929-.924 1.26-.952 1.78-2.689h-5.914v-3.445h9.829v4.734a9.7 9.7 0 0 1-1.752 3.22q-1.205 1.485-3.094 2.41-1.862.924-4.271.924-2.93 0-5.119-1.26-2.191-1.29-3.395-3.586-1.178-2.296-1.178-5.238 0-2.94 1.178-5.238 1.204-2.296 3.367-3.558 2.19-1.288 5.092-1.288m26.987 4.37v15.63h-4.709v-2.83a5.12 5.12 0 0 1-1.971 2.186q-1.287.812-3.012.812-2.628 0-4.188-1.793-1.534-1.792-1.534-4.93V23.92h4.655v8.487q0 1.597.793 2.493.822.869 2.191.868 1.423 0 2.245-.924.82-.924.821-2.633V23.92h4.709Zm2.788-4.398q0-1.092.767-1.793.766-.728 2.026-.728t2.026.728q.766.7.766 1.793 0 1.064-.766 1.793-.767.7-2.026.7-1.26 0-2.026-.7a2.38 2.38 0 0 1-.767-1.793m5.12 4.398v15.63h-4.682v-15.63zm9.036-.196q1.752 0 3.012.812a4.7 4.7 0 0 1 1.834 2.213V18.82h4.682v20.728h-4.682v-2.83a4.7 4.7 0 0 1-1.834 2.214q-1.26.812-3.012.812-1.889 0-3.395-.952-1.478-.981-2.354-2.801-.849-1.82-.849-4.258 0-2.465.849-4.258.876-1.82 2.354-2.773 1.506-.98 3.395-.98Zm1.506 4.201q-1.506 0-2.437 1.009-.903 1.008-.903 2.8 0 1.794.903 2.802.931 1.008 2.437 1.008 1.479 0 2.409-1.036.958-1.035.958-2.773 0-1.765-.958-2.773-.93-1.037-2.409-1.037m25.755 3.39q0 .588-.137 1.288h-10.595q.082 1.765.876 2.55.794.756 2.026.756 1.041 0 1.725-.533a2.5 2.5 0 0 0 .903-1.372h4.956a6.8 6.8 0 0 1-1.315 2.969q-1.013 1.288-2.573 2.045-1.56.728-3.477.728-2.245 0-3.997-.952-1.725-.981-2.71-2.801-.987-1.82-.986-4.258 0-2.465.958-4.258.986-1.82 2.738-2.773 1.752-.98 3.997-.98 2.272 0 3.997.952a6.54 6.54 0 0 1 2.656 2.69q.958 1.708.958 3.949m-4.736-.729q.027-1.54-.822-2.297-.821-.784-2.053-.784-1.287 0-2.135.784-.85.785-.959 2.297z"/></mask><path fill="#000" d="M96.912 29.605q0 2.913-1.232 5.182-1.204 2.24-3.504 3.502-2.273 1.26-5.366 1.26H79.5V19.745h7.31q3.12 0 5.393 1.233t3.477 3.473q1.232 2.241 1.232 5.154M86.4 35.263q2.738 0 4.244-1.484 1.533-1.485 1.533-4.174t-1.533-4.174q-1.506-1.485-4.244-1.484h-2.217v11.316zm27.689-3.949q0 .588-.137 1.288h-10.595q.082 1.765.876 2.55.793.756 2.026.756 1.04 0 1.725-.533a2.5 2.5 0 0 0 .903-1.372h4.955a6.8 6.8 0 0 1-1.314 2.969q-1.013 1.288-2.573 2.045-1.561.728-3.477.728-2.245 0-3.997-.952-1.726-.981-2.71-2.801-.986-1.82-.986-4.258 0-2.465.958-4.258.986-1.82 2.738-2.773 1.752-.98 3.997-.98 2.272 0 3.997.952a6.54 6.54 0 0 1 2.656 2.69q.958 1.708.958 3.949m-4.737-.729q.028-1.54-.821-2.297-.821-.784-2.053-.784-1.287 0-2.136.784-.848.785-.958 2.297zm14.241 4.286 3.312-10.952h4.983l-5.421 15.63h-5.804l-5.421-15.63h4.983zm24.744-3.557q0 .588-.137 1.288h-10.595q.083 1.765.876 2.55.795.756 2.026.756 1.041 0 1.725-.533.685-.532.904-1.372h4.955a6.8 6.8 0 0 1-1.314 2.969q-1.012 1.288-2.574 2.045-1.56.728-3.477.728-2.245 0-3.997-.952-1.725-.981-2.71-2.801-.986-1.82-.986-4.258 0-2.465.959-4.258.985-1.82 2.737-2.773 1.752-.98 3.997-.98 2.273 0 3.998.952a6.54 6.54 0 0 1 2.655 2.69q.958 1.708.958 3.949m-4.736-.729q.028-1.54-.821-2.297-.821-.784-2.054-.784-1.286 0-2.135.784-.849.785-.958 2.297zm11.858-11.765v20.73h-4.681V18.821h4.681Zm10.378 4.903q2.273 0 4.052.98a6.8 6.8 0 0 1 2.82 2.773q1.04 1.82 1.04 4.258t-1.04 4.258a6.98 6.98 0 0 1-2.82 2.8q-1.78.953-4.052.953t-4.079-.952a7.15 7.15 0 0 1-2.847-2.801q-1.013-1.82-1.013-4.258c0-2.438.337-3.044 1.013-4.258q1.04-1.82 2.847-2.773 1.807-.98 4.079-.98m0 4.145q-1.341 0-2.272 1.009-.904.98-.904 2.857 0 1.876.904 2.857.93.98 2.272.98t2.245-.98.904-2.857-.904-2.857q-.903-1.008-2.245-1.009m19.867-4.145q1.89 0 3.368.98 1.505.953 2.354 2.773.876 1.793.876 4.258 0 2.437-.876 4.258-.849 1.82-2.354 2.8-1.478.953-3.368.953-1.752 0-3.011-.812a4.7 4.7 0 0 1-1.835-2.213V47h-4.681V23.919h4.681v2.829a4.7 4.7 0 0 1 1.835-2.213q1.259-.812 3.011-.812m-1.505 4.201q-1.479 0-2.437 1.037-.931 1.008-.931 2.773 0 1.737.931 2.773.958 1.035 2.437 1.036 1.505 0 2.409-1.008.93-1.008.931-2.801c.001-1.793-.311-2.129-.931-2.801q-.905-1.009-2.409-1.009m25.043 3.39q0 .588-.137 1.288H198.51q.081 1.765.876 2.55.793.756 2.026.756 1.04 0 1.724-.533.685-.532.904-1.372h4.955a6.8 6.8 0 0 1-1.314 2.969q-1.013 1.288-2.573 2.045-1.561.728-3.477.728-2.245 0-3.997-.952-1.725-.981-2.711-2.801t-.985-4.258q0-2.465.958-4.258.985-1.82 2.738-2.773 1.752-.98 3.997-.98 2.272 0 3.997.952a6.53 6.53 0 0 1 2.655 2.69q.959 1.708.959 3.949m-4.737-.729q.028-1.54-.821-2.297-.822-.784-2.053-.784-1.287 0-2.136.784-.849.785-.958 2.297zm11.859-3.725a6.76 6.76 0 0 1 2.245-2.269q1.395-.84 3.011-.84v5.126h-1.341q-1.862 0-2.902.812-1.014.813-1.013 2.745v7.115h-4.682v-15.63h4.682zm12.773-3.137q2.902 0 4.627 1.484 1.752 1.485 2.19 3.922h-4.38q-.192-.953-.876-1.485-.657-.56-1.67-.56-.794 0-1.205.364-.411.336-.411.98 0 .729.74 1.093.767.364 2.381.728 1.753.42 2.875.869 1.122.42 1.944 1.4.82.981.821 2.633 0 1.345-.712 2.381-.712 1.037-2.053 1.625t-3.176.588q-3.093 0-4.955-1.4-1.862-1.401-2.272-4.006h4.517q.11 1.008.821 1.54.74.533 1.889.533.795 0 1.205-.364.411-.393.411-1.009 0-.812-.767-1.148-.74-.364-2.437-.756-1.697-.365-2.792-.785a4.66 4.66 0 0 1-1.889-1.344q-.794-.953-.794-2.577 0-2.1 1.56-3.39 1.561-1.316 4.408-1.316m24.171-4.174q3.642 0 5.996 1.82 2.355 1.822 2.929 4.93h-4.955a3.8 3.8 0 0 0-1.506-1.68q-1.013-.644-2.436-.644-2.218 0-3.559 1.54-1.342 1.513-1.342 4.118 0 2.829 1.396 4.342 1.424 1.512 4.025 1.512 1.67 0 2.929-.924 1.26-.952 1.78-2.689h-5.914v-3.445h9.829v4.734a9.7 9.7 0 0 1-1.752 3.22q-1.205 1.485-3.094 2.41-1.862.924-4.271.924-2.93 0-5.119-1.26-2.191-1.29-3.395-3.586-1.178-2.296-1.178-5.238 0-2.94 1.178-5.238 1.204-2.296 3.367-3.558 2.19-1.288 5.092-1.288m26.987 4.37v15.63h-4.709v-2.83a5.12 5.12 0 0 1-1.971 2.186q-1.287.812-3.012.812-2.628 0-4.188-1.793-1.534-1.792-1.534-4.93V23.92h4.655v8.487q0 1.597.793 2.493.822.869 2.191.868 1.423 0 2.245-.924.82-.924.821-2.633V23.92h4.709Zm2.788-4.398q0-1.092.767-1.793.766-.728 2.026-.728t2.026.728q.766.7.766 1.793 0 1.064-.766 1.793-.767.7-2.026.7-1.26 0-2.026-.7a2.38 2.38 0 0 1-.767-1.793m5.12 4.398v15.63h-4.682v-15.63zm9.036-.196q1.752 0 3.012.812a4.7 4.7 0 0 1 1.834 2.213V18.82h4.682v20.728h-4.682v-2.83a4.7 4.7 0 0 1-1.834 2.214q-1.26.812-3.012.812-1.889 0-3.395-.952-1.478-.981-2.354-2.801-.849-1.82-.849-4.258 0-2.465.849-4.258.876-1.82 2.354-2.773 1.506-.98 3.395-.98Zm1.506 4.201q-1.506 0-2.437 1.009-.903 1.008-.903 2.8 0 1.794.903 2.802.931 1.008 2.437 1.008 1.479 0 2.409-1.036.958-1.035.958-2.773 0-1.765-.958-2.773-.93-1.037-2.409-1.037m25.755 3.39q0 .588-.137 1.288h-10.595q.082 1.765.876 2.55.794.756 2.026.756 1.041 0 1.725-.533a2.5 2.5 0 0 0 .903-1.372h4.956a6.8 6.8 0 0 1-1.315 2.969q-1.013 1.288-2.573 2.045-1.56.728-3.477.728-2.245 0-3.997-.952-1.725-.981-2.71-2.801-.987-1.82-.986-4.258 0-2.465.958-4.258.986-1.82 2.738-2.773 1.752-.98 3.997-.98 2.272 0 3.997.952a6.54 6.54 0 0 1 2.656 2.69q.958 1.708.958 3.949m-4.736-.729q.027-1.54-.822-2.297-.821-.784-2.053-.784-1.287 0-2.135.784-.85.785-.959 2.297z"/><path stroke="#fff" stroke-linejoin="round" stroke-width="3" d="M96.912 29.605q0 2.913-1.232 5.182-1.204 2.24-3.504 3.502-2.273 1.26-5.366 1.26H79.5V19.745h7.31q3.12 0 5.393 1.233t3.477 3.473q1.232 2.241 1.232 5.154ZM86.4 35.263q2.738 0 4.244-1.484 1.533-1.485 1.533-4.174t-1.533-4.174q-1.506-1.485-4.244-1.484h-2.217v11.316zm27.689-3.949q0 .588-.137 1.288h-10.595q.082 1.765.876 2.55.793.756 2.026.756 1.04 0 1.725-.533a2.5 2.5 0 0 0 .903-1.372h4.955a6.8 6.8 0 0 1-1.314 2.969q-1.013 1.288-2.573 2.045-1.561.728-3.477.728-2.245 0-3.997-.952-1.726-.981-2.71-2.801-.986-1.82-.986-4.258 0-2.465.958-4.258.986-1.82 2.738-2.773 1.752-.98 3.997-.98 2.272 0 3.997.952a6.54 6.54 0 0 1 2.656 2.69q.958 1.708.958 3.949Zm-4.737-.729q.028-1.54-.821-2.297-.821-.784-2.053-.784-1.287 0-2.136.784-.848.785-.958 2.297zm14.241 4.286 3.312-10.952h4.983l-5.421 15.63h-5.804l-5.421-15.63h4.983zm24.744-3.557q0 .588-.137 1.288h-10.595q.083 1.765.876 2.55.795.756 2.026.756 1.041 0 1.725-.533.685-.532.904-1.372h4.955a6.8 6.8 0 0 1-1.314 2.969q-1.012 1.288-2.574 2.045-1.56.728-3.477.728-2.245 0-3.997-.952-1.725-.981-2.71-2.801-.986-1.82-.986-4.258 0-2.465.959-4.258.985-1.82 2.737-2.773 1.752-.98 3.997-.98 2.273 0 3.998.952a6.54 6.54 0 0 1 2.655 2.69q.958 1.708.958 3.949Zm-4.736-.729q.028-1.54-.821-2.297-.821-.784-2.054-.784-1.286 0-2.135.784-.849.785-.958 2.297zm11.858-11.765v20.73h-4.681V18.821h4.681Zm10.378 4.903q2.273 0 4.052.98a6.8 6.8 0 0 1 2.82 2.773q1.04 1.82 1.04 4.258t-1.04 4.258a6.98 6.98 0 0 1-2.82 2.8q-1.78.953-4.052.953t-4.079-.952a7.15 7.15 0 0 1-2.847-2.801q-1.013-1.82-1.013-4.258c0-2.438.337-3.044 1.013-4.258q1.04-1.82 2.847-2.773 1.807-.98 4.079-.98Zm0 4.145q-1.341 0-2.272 1.009-.904.98-.904 2.857 0 1.876.904 2.857.93.98 2.272.98t2.245-.98.904-2.857-.904-2.857q-.903-1.008-2.245-1.009Zm19.867-4.145q1.89 0 3.368.98 1.505.953 2.354 2.773.876 1.793.876 4.258 0 2.437-.876 4.258-.849 1.82-2.354 2.8-1.478.953-3.368.953-1.752 0-3.011-.812a4.7 4.7 0 0 1-1.835-2.213V47h-4.681V23.919h4.681v2.829a4.7 4.7 0 0 1 1.835-2.213q1.259-.812 3.011-.812Zm-1.505 4.201q-1.479 0-2.437 1.037-.931 1.008-.931 2.773 0 1.737.931 2.773.958 1.035 2.437 1.036 1.505 0 2.409-1.008.93-1.008.931-2.801c.001-1.793-.311-2.129-.931-2.801q-.905-1.009-2.409-1.009Zm25.043 3.39q0 .588-.137 1.288H198.51q.081 1.765.876 2.55.793.756 2.026.756 1.04 0 1.724-.533.685-.532.904-1.372h4.955a6.8 6.8 0 0 1-1.314 2.969q-1.013 1.288-2.573 2.045-1.561.728-3.477.728-2.245 0-3.997-.952-1.725-.981-2.711-2.801t-.985-4.258q0-2.465.958-4.258.985-1.82 2.738-2.773 1.752-.98 3.997-.98 2.272 0 3.997.952a6.53 6.53 0 0 1 2.655 2.69q.959 1.708.959 3.949Zm-4.737-.729q.028-1.54-.821-2.297-.822-.784-2.053-.784-1.287 0-2.136.784-.849.785-.958 2.297zm11.859-3.725a6.76 6.76 0 0 1 2.245-2.269q1.395-.84 3.011-.84v5.126h-1.341q-1.862 0-2.902.812-1.014.813-1.013 2.745v7.115h-4.682v-15.63h4.682zm12.773-3.137q2.902 0 4.627 1.484 1.752 1.485 2.19 3.922h-4.38q-.192-.953-.876-1.485-.657-.56-1.67-.56-.794 0-1.205.364-.411.336-.411.98 0 .729.74 1.093.767.364 2.381.728 1.753.42 2.875.869 1.122.42 1.944 1.4.82.981.821 2.633 0 1.345-.712 2.381-.712 1.037-2.053 1.625t-3.176.588q-3.093 0-4.955-1.4-1.862-1.401-2.272-4.006h4.517q.11 1.008.821 1.54.74.533 1.889.533.795 0 1.205-.364.411-.393.411-1.009 0-.812-.767-1.148-.74-.364-2.437-.756-1.697-.365-2.792-.785a4.66 4.66 0 0 1-1.889-1.344q-.794-.953-.794-2.577 0-2.1 1.56-3.39 1.561-1.316 4.408-1.316Zm24.171-4.174q3.642 0 5.996 1.82 2.355 1.822 2.929 4.93h-4.955a3.8 3.8 0 0 0-1.506-1.68q-1.013-.644-2.436-.644-2.218 0-3.559 1.54-1.342 1.513-1.342 4.118 0 2.829 1.396 4.342 1.424 1.512 4.025 1.512 1.67 0 2.929-.924 1.26-.952 1.78-2.689h-5.914v-3.445h9.829v4.734a9.7 9.7 0 0 1-1.752 3.22q-1.205 1.485-3.094 2.41-1.862.924-4.271.924-2.93 0-5.119-1.26-2.191-1.29-3.395-3.586-1.178-2.296-1.178-5.238 0-2.94 1.178-5.238 1.204-2.296 3.367-3.558 2.19-1.288 5.092-1.288Zm26.987 4.37v15.63h-4.709v-2.83a5.12 5.12 0 0 1-1.971 2.186q-1.287.812-3.012.812-2.628 0-4.188-1.793-1.534-1.792-1.534-4.93V23.92h4.655v8.487q0 1.597.793 2.493.822.869 2.191.868 1.423 0 2.245-.924.82-.924.821-2.633V23.92h4.709Zm2.788-4.398q0-1.092.767-1.793.766-.728 2.026-.728t2.026.728q.766.7.766 1.793 0 1.064-.766 1.793-.767.7-2.026.7-1.26 0-2.026-.7a2.38 2.38 0 0 1-.767-1.793Zm5.12 4.398v15.63h-4.682v-15.63zm9.036-.196q1.752 0 3.012.812a4.7 4.7 0 0 1 1.834 2.213V18.82h4.682v20.728h-4.682v-2.83a4.7 4.7 0 0 1-1.834 2.214q-1.26.812-3.012.812-1.889 0-3.395-.952-1.478-.981-2.354-2.801-.849-1.82-.849-4.258 0-2.465.849-4.258.876-1.82 2.354-2.773 1.506-.98 3.395-.98Zm1.506 4.201q-1.506 0-2.437 1.009-.903 1.008-.903 2.8 0 1.794.903 2.802.931 1.008 2.437 1.008 1.479 0 2.409-1.036.958-1.035.958-2.773 0-1.765-.958-2.773-.93-1.037-2.409-1.037Zm25.755 3.39q0 .588-.137 1.288h-10.595q.082 1.765.876 2.55.794.756 2.026.756 1.041 0 1.725-.533a2.5 2.5 0 0 0 .903-1.372h4.956a6.8 6.8 0 0 1-1.315 2.969q-1.013 1.288-2.573 2.045-1.56.728-3.477.728-2.245 0-3.997-.952-1.725-.981-2.71-2.801-.987-1.82-.986-4.258 0-2.465.958-4.258.986-1.82 2.738-2.773 1.752-.98 3.997-.98 2.272 0 3.997.952a6.54 6.54 0 0 1 2.656 2.69q.958 1.708.958 3.949Zm-4.736-.729q.027-1.54-.822-2.297-.821-.784-2.053-.784-1.287 0-2.135.784-.85.785-.959 2.297z" mask="url(#a)"/></svg>